<?xml version="1.0" encoding="UTF-8" standalone="no"?>
<svg
   xmlns:dc="http://purl.org/dc/elements/1.1/"
   xmlns:cc="http://creativecommons.org/ns#"
   xmlns:rdf="http://www.w3.org/1999/02/22-rdf-syntax-ns#"
   xmlns:svg="http://www.w3.org/2000/svg"
   xmlns="http://www.w3.org/2000/svg"
   xmlns:sodipodi="http://sodipodi.sourceforge.net/DTD/sodipodi-0.dtd"
   xmlns:inkscape="http://www.inkscape.org/namespaces/inkscape"
   version="1.1"
   id="Layer_1"
   x="0px"
   y="0px"
   width="739.49896"
   height="151.6124"
   viewBox="0 0 739.49897 151.6124"
   enable-background="new 0 0 792 220.619"
   xml:space="preserve"
   inkscape:version="0.91 r13725"
   sodipodi:docname="logo.svg"
   inkscape:export-filename="K:\Documents\Ida\workspace\oplalog\blog\blog-config\header\logo.png"
   inkscape:export-xdpi="300"
   inkscape:export-ydpi="300"><sodipodi:namedview
     pagecolor="#ffffff"
     bordercolor="#666666"
     borderopacity="1"
     objecttolerance="10"
     gridtolerance="10"
     guidetolerance="10"
     inkscape:pageopacity="0"
     inkscape:pageshadow="2"
     inkscape:window-width="1920"
     inkscape:window-height="1003"
     id="namedview90"
     showgrid="false"
     inkscape:zoom="1.7121212"
     inkscape:cx="337.4222"
     inkscape:cy="8.605417"
     inkscape:window-x="-9"
     inkscape:window-y="-9"
     inkscape:window-maximized="1"
     inkscape:current-layer="Layer_1"
     fit-margin-top="0.2"
     fit-margin-left="0.2"
     fit-margin-right="0.3"
     fit-margin-bottom="0.2"
     inkscape:showpageshadow="false"
     showguides="true"><inkscape:grid
       type="xygrid"
       id="grid4237"
       originx="-35.472552"
       originy="-23.162854" /></sodipodi:namedview><style
     id="style3">
		.primary-color{fill:	#333333; fill-rule:	evenodd; clip-rule:	evenodd;}
		.secondary-color{fill:	#f05f40; fill-rule:	evenodd; clip-rule:	evenodd;}
	</style><metadata
     id="metadata97"><rdf:RDF><cc:Work
         rdf:about=""><dc:format>image/svg+xml</dc:format><dc:type
           rdf:resource="http://purl.org/dc/dcmitype/StillImage" /><dc:title></dc:title></cc:Work></rdf:RDF></metadata><defs
     id="defs95" /><g
     id="Layer_30"
     transform="matrix(1,0,0,0.70894425,-40.596362,-0.46402196)"><rect
       x="201.972"
       y="7.3930001"
       width="10.481"
       height="206.836"
       id="rect7"
       class="primary-color"
       style="clip-rule:evenodd;fill:#333333;fill-rule:evenodd" /></g><text
     xml:space="preserve"
     style="font-style:normal;font-weight:normal;font-size:40px;line-height:125%;font-family:sans-serif;letter-spacing:0px;word-spacing:0px;fill:#333333;fill-opacity:1;stroke:none;stroke-width:1px;stroke-linecap:butt;stroke-linejoin:miter;stroke-opacity:1"
     x="189.39467"
     y="123.377"
     id="text4188"
     sodipodi:linespacing="125%"><tspan
       sodipodi:role="line"
       id="tspan4190"
       x="189.39467"
       y="123.377" /></text>
<text
     xml:space="preserve"
     style="font-style:normal;font-weight:normal;font-size:40px;line-height:125%;font-family:sans-serif;letter-spacing:0px;word-spacing:0px;fill:#333333;fill-opacity:1;stroke:none;stroke-width:1px;stroke-linecap:butt;stroke-linejoin:miter;stroke-opacity:1"
     x="439.37695"
     y="43.359295"
     id="text4204"
     sodipodi:linespacing="125%"><tspan
       sodipodi:role="line"
       id="tspan4206"
       x="439.37695"
       y="43.359295" /></text>
<g
     style="font-style:normal;font-weight:normal;font-size:40px;line-height:125%;font-family:sans-serif;letter-spacing:0px;word-spacing:0px;fill:#000000;fill-opacity:1;stroke:none;stroke-width:1px;stroke-linecap:butt;stroke-linejoin:miter;stroke-opacity:1"
     id="text4209"
     transform="translate(-35.472523,-22.090054)"><g
       style="font-style:normal;font-weight:normal;font-size:40px;line-height:125%;font-family:sans-serif;letter-spacing:0px;word-spacing:0px;fill:#f05f40;fill-opacity:1;stroke:none;stroke-width:1px;stroke-linecap:butt;stroke-linejoin:miter;stroke-opacity:1"
       id="text4198"><path
         d="m 254.32872,131.43651 -11,22.00001 0,18.4 -10.4,0 0,-18.4 -11,-22.00001 12.05,0 4.15,8.25 4.15,-8.25 12.05,0 z"
         style="font-style:normal;font-variant:normal;font-weight:normal;font-stretch:normal;font-size:50.00000381px;font-family:Grungerocker;-inkscape-font-specification:Grungerocker;fill:#f05f40;fill-opacity:1"
         id="path4220"
         inkscape:connector-curvature="0" /><path
         d="m 289.60372,162.53652 q 0,3.9 -2.7,6.6 -2.65,2.65 -6.55,2.65 l -13.55,0 q -3.85,0 -6.55,-2.65 -2.7,-2.7 -2.7,-6.6 l 0,-21.70001 q 0,-3.9 2.7,-6.65 2.7,-2.75 6.55,-2.75 l 13.55,0 q 3.9,0 6.55,2.75 2.7,2.75 2.7,6.65 l 0,21.70001 z m -10.65,-4.1 0,-13.5 q 0,-1.2 -0.8,-2.05001 -0.8,-0.9 -2,-0.9 l -4.15,0 q -1.25,0 -2.1,0.85 -0.8,0.85001 -0.8,2.10001 l 0,13.5 q 0,1.25 0.85,2.1 0.85,0.85 2.05,0.85 l 4.15,0 q 1.2,0 2,-0.85 0.8,-0.9 0.8,-2.1 z"
         style="font-style:normal;font-variant:normal;font-weight:normal;font-stretch:normal;font-size:50.00000381px;font-family:Grungerocker;-inkscape-font-specification:Grungerocker;fill:#f05f40;fill-opacity:1"
         id="path4222"
         inkscape:connector-curvature="0" /><path
         d="m 306.70607,131.43651 0,0 z m 20.55,31.15001 q 0,3.9 -2.7,6.6 -2.7,2.65 -6.55,2.65 l -13.6,0 q -3.9,0 -6.55,-2.65 -2.65,-2.7 -2.65,-6.6 l 0,-31.15001 11.5,0 0,27.00001 q 0,1.25 0.8,2.1 0.85,0.8 2.15,0.8 l 4.1,0 q 1.2,0 2,-0.85 0.85,-0.85 0.85,-2.05 l 0,-27.00001 10.65,0 0,31.15001 z"
         style="font-style:normal;font-variant:normal;font-weight:normal;font-stretch:normal;font-size:50.00000381px;font-family:Grungerocker;-inkscape-font-specification:Grungerocker;fill:#f05f40;fill-opacity:1"
         id="path4224"
         inkscape:connector-curvature="0" /><path
         d="m 364.80139,171.83652 -11.65,0 -9,-17.2 -1.25,0.05 0,17.15 -10.4,0 0,-40.40001 19.5,0 q 12.55,0 12.55,11 0.1,0.85 0.1,1.90001 0,4.45 -1.45,7.45 -1.85,3.85 -5.7,4.5 l 7.3,15.55 z m -11.9,-27.6 q 0,-0.75001 -0.55,-1.25001 -0.55,-0.5 -1.25,-0.5 l -8.2,0 0,3.55001 8.2,0 q 0.7,0 1.25,-0.55 0.55,-0.55 0.55,-1.25 z"
         style="font-style:normal;font-variant:normal;font-weight:normal;font-stretch:normal;font-size:50.00000381px;font-family:Grungerocker;-inkscape-font-specification:Grungerocker;fill:#f05f40;fill-opacity:1"
         id="path4226"
         inkscape:connector-curvature="0" /><path
         d="m 426.13655,158.48652 q 0,5.8 -2.55,9.3 -2.9,4 -8.45,4 l -19.9,0 0,-10.65 17.85,0 q 1.9,0 1.9,-1.75 0,-1.8 -2.05,-1.8 l -11,0 q -4.3,0 -6.65,-5 -1.85001,-3.95 -1.85001,-8.75 0,-4.70001 2.30001,-8.25001 2.7,-4.05 7.2,-4.05 l 21.8,0 0,10.75 -16.65,0 q -2.45,0 -2.45,1.55001 0,0.85 0.7,1.45 0.7,0.6 1.6,0.6 l 10.15,0 q 2.75,0 5.1,2.8 2.95,3.5 2.95,9.8 z"
         style="font-style:normal;font-variant:normal;font-weight:normal;font-stretch:normal;font-size:50.00000381px;font-family:Grungerocker;-inkscape-font-specification:Grungerocker;fill:#f05f40;fill-opacity:1"
         id="path4228"
         inkscape:connector-curvature="0" /><path
         d="m 456.71936,171.73652 -20.25,0 q -3.65,0 -5.95,-1.7 -2.65,-1.95 -2.65,-5.45 l 0,-33.20001 10.65,0 0,28.55001 18.2,0 0,11.8 z"
         style="font-style:normal;font-variant:normal;font-weight:normal;font-stretch:normal;font-size:50.00000381px;font-family:Grungerocker;-inkscape-font-specification:Grungerocker;fill:#f05f40;fill-opacity:1"
         id="path4230"
         inkscape:connector-curvature="0" /><path
         d="m 491.75219,162.53652 q 0,3.9 -2.7,6.6 -2.65,2.65 -6.55,2.65 l -13.55,0 q -3.85,0 -6.55,-2.65 -2.7,-2.7 -2.7,-6.6 l 0,-21.70001 q 0,-3.9 2.7,-6.65 2.7,-2.75 6.55,-2.75 l 13.55,0 q 3.9,0 6.55,2.75 2.7,2.75 2.7,6.65 l 0,21.70001 z m -10.65,-4.1 0,-13.5 q 0,-1.2 -0.8,-2.05001 -0.8,-0.9 -2,-0.9 l -4.15,0 q -1.25,0 -2.1,0.85 -0.8,0.85001 -0.8,2.10001 l 0,13.5 q 0,1.25 0.85,2.1 0.85,0.85 2.05,0.85 l 4.15,0 q 1.2,0 2,-0.85 0.8,-0.9 0.8,-2.1 z"
         style="font-style:normal;font-variant:normal;font-weight:normal;font-stretch:normal;font-size:50.00000381px;font-family:Grungerocker;-inkscape-font-specification:Grungerocker;fill:#f05f40;fill-opacity:1"
         id="path4232"
         inkscape:connector-curvature="0" /><path
         d="m 526.60453,142.78651 -18.1,0 0,18.70001 7.6,0 0,-3.2 -6.15,0 0,-11.8 16.5,0 0,25.25 -21.75,0 q -2.95,0 -5.35,-2.9 -2.25,-2.75 -2.25,-5.8 l 0,-22.55001 q 0,-3.7 2.4,-6.2 2.45,-2.55 6.1,-2.55 l 21,0 0,11.05 z"
         style="font-style:normal;font-variant:normal;font-weight:normal;font-stretch:normal;font-size:50.00000381px;font-family:Grungerocker;-inkscape-font-specification:Grungerocker;fill:#f05f40;fill-opacity:1"
         id="path4234"
         inkscape:connector-curvature="0" /><path
         d="m 570.1225,171.58652 -13.1,0 -6.9,-23.55 -6.95,23.55 -13.05,0 13.75,-40.25001 12.45,0 13.8,40.25001 z"
         style="font-style:normal;font-variant:normal;font-weight:normal;font-stretch:normal;font-size:50.00000381px;font-family:Grungerocker;-inkscape-font-specification:Grungerocker;fill:#f05f40;fill-opacity:1"
         id="path4236"
         inkscape:connector-curvature="0" /><path
         d="m 605.09047,171.83652 -11.05,0 0,-26.8 q 0,-1.95001 -1.35,-2.50001 -0.75,-0.3 -3.25,-0.3 -2.25,0 -3.3,0.35 -1.7,0.65 -1.7,2.45001 l 0,26.7 -11.55,0 0,-40.00001 22.05,0 q 4.9,0 7.6,3.25 2.55,3 2.55,8 l 0,28.85001 z"
         style="font-style:normal;font-variant:normal;font-weight:normal;font-stretch:normal;font-size:50.00000381px;font-family:Grungerocker;-inkscape-font-specification:Grungerocker;fill:#f05f40;fill-opacity:1"
         id="path4238"
         inkscape:connector-curvature="0" /><path
         d="m 664.15688,171.73652 -10.95001,0 0,-13.45 -7.45,0 0,13.45 -10.95,0 0,-40.00001 10.95,0 0,14.75001 7.45,0 0,-14.75001 10.95001,0 0,40.00001 z"
         style="font-style:normal;font-variant:normal;font-weight:normal;font-stretch:normal;font-size:50.00000381px;font-family:Grungerocker;-inkscape-font-specification:Grungerocker;fill:#f05f40;fill-opacity:1"
         id="path4240"
         inkscape:connector-curvature="0" /><path
         d="m 699.16312,142.78651 -16.15,0 q -1.95,0 -1.95,1.75001 0,1.95 2.2,1.95 l 15.8,0 0,11.8 -16.95,0 q -1.5,0 -1.5,1.5 0,1.7 1.5,1.7 l 16.95,0 0,10.25 -21.8,0 q -2.95,0 -5.3,-2.9 -2.25,-2.75 -2.25,-5.8 l 0,-22.55001 q 0,-3.75 2.35,-6.25 2.4,-2.5 6.1,-2.5 l 21,0 0,11.05 z"
         style="font-style:normal;font-variant:normal;font-weight:normal;font-stretch:normal;font-size:50.00000381px;font-family:Grungerocker;-inkscape-font-specification:Grungerocker;fill:#f05f40;fill-opacity:1"
         id="path4242"
         inkscape:connector-curvature="0" /><path
         d="m 736.28581,171.83652 -11.65,0 -9,-17.2 -1.25,0.05 0,17.15 -10.4,0 0,-40.40001 19.5,0 q 12.55,0 12.55,11 0.1,0.85 0.1,1.90001 0,4.45 -1.45,7.45 -1.85,3.85 -5.7,4.5 l 7.3,15.55 z m -11.9,-27.6 q 0,-0.75001 -0.55,-1.25001 -0.55,-0.5 -1.25,-0.5 l -8.2,0 0,3.55001 8.2,0 q 0.7,0 1.25,-0.55 0.55,-0.55 0.55,-1.25 z"
         style="font-style:normal;font-variant:normal;font-weight:normal;font-stretch:normal;font-size:50.00000381px;font-family:Grungerocker;-inkscape-font-specification:Grungerocker;fill:#f05f40;fill-opacity:1"
         id="path4244"
         inkscape:connector-curvature="0" /><path
         d="m 769.67097,142.78651 -16.15,0 q -1.95,0 -1.95,1.75001 0,1.95 2.2,1.95 l 15.8,0 0,11.8 -16.95,0 q -1.5,0 -1.5,1.5 0,1.7 1.5,1.7 l 16.95,0 0,10.25 -21.8,0 q -2.95,0 -5.3,-2.9 -2.25,-2.75 -2.25,-5.8 l 0,-22.55001 q 0,-3.75 2.35,-6.25 2.4,-2.5 6.1,-2.5 l 21,0 0,11.05 z"
         style="font-style:normal;font-variant:normal;font-weight:normal;font-stretch:normal;font-size:50.00000381px;font-family:Grungerocker;-inkscape-font-specification:Grungerocker;fill:#f05f40;fill-opacity:1"
         id="path4246"
         inkscape:connector-curvature="0" /></g></g><g
     style="font-style:normal;font-weight:normal;font-size:40px;line-height:125%;font-family:sans-serif;letter-spacing:0px;word-spacing:0px;fill:#333333;fill-opacity:1;stroke:none;stroke-width:1px;stroke-linecap:butt;stroke-linejoin:miter;stroke-opacity:1"
     id="text4190"
     transform="translate(-35.472523,-22.090054)"><path
       d="m 277.94952,26.875012 -22,44.000003 0,36.800005 -20.8,0 0,-36.800005 -22,-44.000003 24.1,0 8.3,16.500001 8.3,-16.500001 24.1,0 z"
       style="font-style:normal;font-variant:normal;font-weight:normal;font-stretch:normal;font-size:100.00000763px;font-family:Grungerocker;-inkscape-font-specification:Grungerocker;fill:#333333;fill-opacity:1"
       id="path4203"
       inkscape:connector-curvature="0" /><path
       d="m 348.49953,89.075017 q 0,7.8 -5.4,13.200003 -5.3,5.3 -13.1,5.3 l -27.1,0 q -7.7,0 -13.1,-5.3 -5.4,-5.400003 -5.4,-13.200003 l 0,-43.400004 q 0,-7.8 5.4,-13.300001 5.4,-5.5 13.1,-5.5 l 27.1,0 q 7.8,0 13.1,5.5 5.4,5.500001 5.4,13.300001 l 0,43.400004 z m -21.3,-8.200001 0,-27.000002 q 0,-2.4 -1.6,-4.1 -1.6,-1.800001 -4,-1.800001 l -8.3,0 q -2.5,0 -4.2,1.700001 -1.6,1.7 -1.6,4.2 l 0,27.000002 q 0,2.5 1.7,4.2 1.7,1.7 4.1,1.7 l 8.3,0 q 2.4,0 4,-1.7 1.6,-1.8 1.6,-4.2 z"
       style="font-style:normal;font-variant:normal;font-weight:normal;font-stretch:normal;font-size:100.00000763px;font-family:Grungerocker;-inkscape-font-specification:Grungerocker;fill:#333333;fill-opacity:1"
       id="path4205"
       inkscape:connector-curvature="0" /><path
       d="m 382.70422,26.875012 0,0 z m 41.10001,62.300005 q 0,7.8 -5.4,13.200003 -5.4,5.3 -13.10001,5.3 l -27.2,0 q -7.8,0 -13.1,-5.3 -5.3,-5.400003 -5.3,-13.200003 l 0,-62.300005 23,0 0,54.000004 q 0,2.5 1.6,4.2 1.7,1.6 4.3,1.6 l 8.2,0 q 2.4,0 4,-1.7 1.7,-1.7 1.7,-4.1 l 0,-54.000004 21.30001,0 0,62.300005 z"
       style="font-style:normal;font-variant:normal;font-weight:normal;font-stretch:normal;font-size:100.00000763px;font-family:Grungerocker;-inkscape-font-specification:Grungerocker;fill:#333333;fill-opacity:1"
       id="path4207"
       inkscape:connector-curvature="0" /><path
       d="m 498.89487,107.67502 -23.30001,0 -18,-34.400005 -2.5,0.1 0,34.300005 -20.8,0 0,-80.800008 39,0 q 25.10001,0 25.10001,22.000001 0.2,1.700001 0.2,3.800001 0,8.9 -2.9,14.900001 -3.7,7.7 -11.40001,9.000001 l 14.60001,31.100004 z M 475.09486,52.475014 q 0,-1.5 -1.1,-2.5 -1.1,-1.000001 -2.5,-1.000001 l -16.4,0 0,7.100001 16.4,0 q 1.4,0 2.5,-1.1 1.1,-1.1 1.1,-2.5 z"
       style="font-style:normal;font-variant:normal;font-weight:normal;font-stretch:normal;font-size:100.00000763px;font-family:Grungerocker;-inkscape-font-specification:Grungerocker;fill:#333333;fill-opacity:1"
       id="path4209"
       inkscape:connector-curvature="0" /><path
       d="m 560.46518,107.47502 -40.50001,0 q -7.3,0 -11.9,-3.4 -5.3,-3.9 -5.3,-10.900003 l 0,-66.400005 21.30001,0 0,57.100004 36.4,0 0,23.600004 z"
       style="font-style:normal;font-variant:normal;font-weight:normal;font-stretch:normal;font-size:100.00000763px;font-family:Grungerocker;-inkscape-font-specification:Grungerocker;fill:#333333;fill-opacity:1"
       id="path4211"
       inkscape:connector-curvature="0" /><path
       d="m 630.5308,89.075017 q 0,7.8 -5.4,13.200003 -5.3,5.3 -13.1,5.3 l -27.1,0 q -7.7,0 -13.1,-5.3 -5.4,-5.400003 -5.4,-13.200003 l 0,-43.400004 q 0,-7.8 5.4,-13.300001 5.4,-5.5 13.1,-5.5 l 27.1,0 q 7.8,0 13.1,5.5 5.4,5.500001 5.4,13.300001 l 0,43.400004 z m -21.3,-8.200001 0,-27.000002 q 0,-2.4 -1.6,-4.1 -1.6,-1.800001 -4,-1.800001 l -8.3,0 q -2.5,0 -4.2,1.700001 -1.6,1.7 -1.6,4.2 l 0,27.000002 q 0,2.5 1.7,4.2 1.7,1.7 4.1,1.7 l 8.3,0 q 2.4,0 4,-1.7 1.6,-1.8 1.6,-4.2 z"
       style="font-style:normal;font-variant:normal;font-weight:normal;font-stretch:normal;font-size:100.00000763px;font-family:Grungerocker;-inkscape-font-specification:Grungerocker;fill:#333333;fill-opacity:1"
       id="path4213"
       inkscape:connector-curvature="0" /><path
       d="m 700.23549,49.575014 -36.2,0 0,37.400002 15.2,0 0,-6.4 -12.3,0 0,-23.600002 33,0 0,50.500006 -43.5,0 q -5.9,0 -10.7,-5.8 -4.5,-5.500003 -4.5,-11.600003 l 0,-45.100004 q 0,-7.4 4.8,-12.400001 4.9,-5.1 12.2,-5.1 l 42,0 0,22.100002 z"
       style="font-style:normal;font-variant:normal;font-weight:normal;font-stretch:normal;font-size:100.00000763px;font-family:Grungerocker;-inkscape-font-specification:Grungerocker;fill:#333333;fill-opacity:1"
       id="path4215"
       inkscape:connector-curvature="0" /><path
       d="m 774.67146,89.075017 q 0,7.8 -5.4,13.200003 -5.3,5.3 -13.1,5.3 l -27.1,0 q -7.7,0 -13.10001,-5.3 -5.4,-5.400003 -5.4,-13.200003 l 0,-43.400004 q 0,-7.8 5.4,-13.300001 5.40001,-5.5 13.10001,-5.5 l 27.1,0 q 7.8,0 13.1,5.5 5.4,5.500001 5.4,13.300001 l 0,43.400004 z m -21.3,-8.200001 0,-27.000002 q 0,-2.4 -1.6,-4.1 -1.6,-1.800001 -4,-1.800001 l -8.3,0 q -2.5,0 -4.2,1.700001 -1.6,1.7 -1.6,4.2 l 0,27.000002 q 0,2.5 1.7,4.2 1.7,1.7 4.1,1.7 l 8.3,0 q 2.4,0 4,-1.7 1.6,-1.8 1.6,-4.2 z"
       style="font-style:normal;font-variant:normal;font-weight:normal;font-stretch:normal;font-size:100.00000763px;font-family:Grungerocker;-inkscape-font-specification:Grungerocker;fill:#333333;fill-opacity:1"
       id="path4217"
       inkscape:connector-curvature="0" /></g><g
     id="g4277"
     transform="matrix(0.97333323,0,0,0.97333323,6.6248085,-17.495636)"><circle
       r="75.000008"
       cy="97.290062"
       cx="74.999977"
       id="path4258-8"
       style="opacity:0.95099996;fill:#333333;fill-opacity:1;fill-rule:nonzero;stroke:none;stroke-width:1;stroke-linecap:round;stroke-linejoin:miter;stroke-miterlimit:4;stroke-dasharray:none;stroke-dashoffset:0;stroke-opacity:1" /><circle
       r="40.000004"
       cy="97.290062"
       cx="74.999977"
       id="path4258"
       style="opacity:0.95099996;fill:#f05f40;fill-opacity:1;fill-rule:nonzero;stroke:none;stroke-width:1;stroke-linecap:round;stroke-linejoin:miter;stroke-miterlimit:4;stroke-dasharray:none;stroke-dashoffset:0;stroke-opacity:1" /></g></svg>