<?xml version="1.0" encoding="UTF-8" standalone="no"?>
<svg
   xmlns:dc="http://purl.org/dc/elements/1.1/"
   xmlns:cc="http://creativecommons.org/ns#"
   xmlns:rdf="http://www.w3.org/1999/02/22-rdf-syntax-ns#"
   xmlns:svg="http://www.w3.org/2000/svg"
   xmlns="http://www.w3.org/2000/svg"
   xmlns:sodipodi="http://sodipodi.sourceforge.net/DTD/sodipodi-0.dtd"
   xmlns:inkscape="http://www.inkscape.org/namespaces/inkscape"
   version="1.1"
   id="Layer_1"
   x="0px"
   y="0px"
   width="711.00397"
   height="196.86528"
   viewBox="0 0 711.00397 196.86529"
   enable-background="new 0 0 792 220.619"
   xml:space="preserve"
   inkscape:version="0.91 r13725"
   sodipodi:docname="logo.svg"
   inkscape:export-filename="K:\Documents\Ida\workspace\oplalog\blog\config\header\logo.png"
   inkscape:export-xdpi="300"
   inkscape:export-ydpi="300"><sodipodi:namedview
     pagecolor="#ffffff"
     bordercolor="#666666"
     borderopacity="1"
     objecttolerance="10"
     gridtolerance="10"
     guidetolerance="10"
     inkscape:pageopacity="0"
     inkscape:pageshadow="2"
     inkscape:window-width="1920"
     inkscape:window-height="1003"
     id="namedview90"
     showgrid="false"
     inkscape:zoom="1.7121212"
     inkscape:cx="372.02654"
     inkscape:cy="101.85676"
     inkscape:window-x="-9"
     inkscape:window-y="-9"
     inkscape:window-maximized="1"
     inkscape:current-layer="Layer_1"
     fit-margin-top="0"
     fit-margin-left="0"
     fit-margin-right="0"
     fit-margin-bottom="0"
     inkscape:showpageshadow="false"
     showguides="true"><inkscape:grid
       type="xygrid"
       id="grid4237"
       originx="-3.0509979e-005"
       originy="-6.7686759e-006" /></sodipodi:namedview><style
     id="style3">
		.primary-color{fill:	#333333; fill-rule:	evenodd; clip-rule:	evenodd;}
		.secondary-color{fill:	#f05f40; fill-rule:	evenodd; clip-rule:	evenodd;}
	</style><metadata
     id="metadata97"><rdf:RDF><cc:Work
         rdf:about=""><dc:format>image/svg+xml</dc:format><dc:type
           rdf:resource="http://purl.org/dc/dcmitype/StillImage" /><dc:title></dc:title></cc:Work></rdf:RDF></metadata><defs
     id="defs95" /><path
     style="clip-rule:evenodd;fill:#333333;fill-opacity:1;fill-rule:evenodd"
     inkscape:connector-curvature="0"
     class="primary-color"
     id="path4"
     d="m 116.87245,21.152288 c -35.098006,22.022 -47.055006,39.077 -69.323006,68.686 l -0.058,0.119 c -1.665,2.138 -3.248,4.229004 -4.75,6.274004 -10.5,15.345008 -32.09,56.279008 -14.332,73.232008 3.479,3.319 8.194,5.28 13.983,5.518 11.765,0.479 22.741,-3.18 42.436,-16.761 13.002,-8.964 18.877006,-15.21 23.134006,-10.674 3.554,3.786 -1.565,10.724 -12.020006,19.93 -20.844,18.353 -41.863,35.674 -71.174,25.387 -50.9,-22.084 -11.082,-99.679012 10.874,-123.117012 15.579,-19.052 39.899,-39.197 61.146,-52.224 29.477006,-17.47100026 44.162006,-9.313 20.084006,3.63 z" /><path
     style="clip-rule:evenodd;fill:#f05f40;fill-opacity:1;fill-rule:evenodd"
     inkscape:connector-curvature="0"
     class="secondary-color"
     id="path40"
     d="m 34.077444,68.035288 c 9.031,9.896 21.37,19.78 33.265,25.778 10.834,5.461008 23.967,11.039012 37.276006,21.446012 20.861,16.308 28.691,44.712 28.731,44.803 2.754,13.2 -7.22,7.313 -10.312,0.123 -4.868,-8.78 -14.681,-24.52 -26.859006,-33.649 -13.603,-8.993 -22.56,-13.313 -32.873,-18.513 -13.063,-6.586 -25.674,-14.014012 -36.351,-25.710012 -12.216,-10.668 -22.2999995,-39.902 -21.6899995,-54.922 1.486,-13.802 8.0019995,-10.292 10.7439995,0.434 2.935,11.481 8.986,29.403 18.069,40.21 z" /><path
     style="clip-rule:evenodd;fill:#333333;fill-opacity:1;fill-rule:evenodd"
     inkscape:connector-curvature="0"
     class="primary-color"
     id="path10"
     d="m 99.818524,38.664439 c 8.440006,-6.999 23.549006,-17.901 39.586006,-25.92 30.229,-15.1150003 56.989,-0.445 44.581,34.493 -13.269,36.152999 -53.518,76.624011 -90.205006,99.406011 -22.817,15.279 -29.90937,5.28001 -6.458,-11.271 27.716006,-22.235 54.722006,-47.196012 70.622006,-74.525011 16.15,-27.762 15.989,-45.878 -17.419,-30.099 -11.182,5.284 -22.856,12.75 -32.198,18.35 -13.186006,7.907 -23.445006,1.947 -8.509006,-10.434 z"
     sodipodi:nodetypes="ccccccccc" /><g
     id="Layer_30"
     transform="matrix(1,0,0,0.95179411,-8.7875555,-7.036614)"><rect
       x="201.972"
       y="7.3930001"
       width="10.481"
       height="206.836"
       id="rect7"
       class="primary-color"
       style="clip-rule:evenodd;fill:#333333;fill-rule:evenodd" /></g><g
     id="Layer_28"
     transform="translate(-8.7875555,-17.363712)"><path
       d="m 36.045,28.19 c 2.366,0 4.296,-1.999 4.296,-4.455 0,-2.453 -1.931,-4.451 -4.296,-4.451 -2.368,0 -4.299,1.999 -4.299,4.451 0,2.456 1.932,4.455 4.299,4.455 z"
       id="path13"
       class="secondary-color"
       inkscape:connector-curvature="0"
       style="clip-rule:evenodd;fill:#f05f40;fill-rule:evenodd" /></g><g
     id="Layer_27"
     transform="translate(-8.7875555,-17.363712)"><path
       d="m 38.022,42.499 c 2.86,0 5.192,-2.422 5.192,-5.384 0,-2.962 -2.332,-5.383 -5.192,-5.383 -2.864,0 -5.196,2.421 -5.196,5.383 0,2.962 2.333,5.384 5.196,5.384 z"
       id="path16"
       class="secondary-color"
       inkscape:connector-curvature="0"
       style="clip-rule:evenodd;fill:#f05f40;fill-rule:evenodd" /></g><g
     id="Layer_26"
     transform="translate(-8.7875555,-17.363712)"><path
       d="m 42.665,58.101 c 3.345,0 6.073,-2.828 6.073,-6.29 0,-3.468 -2.729,-6.293 -6.073,-6.293 -3.342,0 -6.07,2.825 -6.07,6.293 0,3.462 2.727,6.29 6.07,6.29 z"
       id="path19"
       class="secondary-color"
       inkscape:connector-curvature="0"
       style="clip-rule:evenodd;fill:#f05f40;fill-rule:evenodd" /></g><g
     id="Layer_25"
     transform="translate(-8.7875555,-17.363712)"><path
       d="m 50.844,73.906 c 3.344,0 6.073,-2.827 6.073,-6.292 0,-3.466 -2.729,-6.291 -6.073,-6.291 -3.344,0 -6.07,2.825 -6.07,6.291 -10e-4,3.466 2.726,6.292 6.07,6.292 z"
       id="path22"
       class="secondary-color"
       inkscape:connector-curvature="0"
       style="clip-rule:evenodd;fill:#f05f40;fill-rule:evenodd" /></g><g
     id="Layer_24"
     transform="translate(-8.7875555,-17.363712)"><path
       d="m 62.074,88.323 c 3.564,0 6.473,-3.013 6.473,-6.707 0,-3.696 -2.909,-6.708 -6.473,-6.708 -3.565,0 -6.474,3.012 -6.474,6.708 0,3.694 2.909,6.707 6.474,6.707 z"
       id="path25"
       class="secondary-color"
       inkscape:connector-curvature="0"
       style="clip-rule:evenodd;fill:#f05f40;fill-rule:evenodd" /></g><g
     id="Layer_23"
     transform="translate(-8.7875555,-17.363712)"><path
       d="m 76.768,98.373 c 3.566,0 6.473,-3.014 6.473,-6.708 0,-3.691 -2.907,-6.707 -6.473,-6.707 -3.565,0 -6.473,3.015 -6.473,6.707 0,3.694 2.908,6.708 6.473,6.708 z"
       id="path28"
       class="secondary-color"
       inkscape:connector-curvature="0"
       style="clip-rule:evenodd;fill:#f05f40;fill-rule:evenodd" /></g><g
     id="Layer_22"
     transform="translate(-8.7875555,-17.363712)"><path
       d="m 92.675,108.15 c 3.564,0 6.473,-3.017 6.473,-6.707 0,-3.697 -2.909,-6.708 -6.473,-6.708 -3.564,0 -6.474,3.011 -6.474,6.708 0.001,3.69 2.91,6.707 6.474,6.707 z"
       id="path31"
       class="secondary-color"
       inkscape:connector-curvature="0"
       style="clip-rule:evenodd;fill:#f05f40;fill-rule:evenodd" /></g><g
     id="Layer_21"
     transform="translate(-8.7875555,-17.363712)"><path
       d="m 108.064,116.23 c 3.294,0 5.98,-2.78 5.98,-6.192 0,-3.415 -2.686,-6.196 -5.98,-6.196 -3.294,0 -5.979,2.781 -5.979,6.196 -10e-4,3.412 2.685,6.192 5.979,6.192 z"
       id="path34"
       class="secondary-color"
       inkscape:connector-curvature="0"
       style="clip-rule:evenodd;fill:#f05f40;fill-rule:evenodd" /></g><g
     id="Layer_20"
     transform="translate(-8.7875555,-17.363712)"><path
       d="m 122.899,123.407 c 2.757,0 5.007,-2.334 5.007,-5.193 0,-2.857 -2.25,-5.19 -5.007,-5.19 -2.759,0 -5.01,2.333 -5.01,5.19 0,2.859 2.251,5.193 5.01,5.193 z"
       id="path37"
       class="secondary-color"
       inkscape:connector-curvature="0"
       style="clip-rule:evenodd;fill:#f05f40;fill-rule:evenodd" /></g><g
     id="Layer_5"
     transform="translate(-8.7875555,-17.363712)"><path
       d="m 143.101,146.176 c 2.779,0 5.042,-2.264 5.042,-5.043 0,-2.777 -2.264,-5.042 -5.042,-5.042 -2.777,0 -5.043,2.265 -5.043,5.042 0,2.78 2.266,5.043 5.043,5.043 z"
       id="path82"
       class="secondary-color"
       inkscape:connector-curvature="0"
       style="clip-rule:evenodd;fill:#f05f40;fill-rule:evenodd" /></g><g
     id="Layer_4"
     transform="translate(-8.7875555,-17.363712)"><path
       d="m 150.396,157.185 c 2.115,0 3.845,-1.727 3.845,-3.845 0,-2.118 -1.73,-3.846 -3.845,-3.846 -2.119,0 -3.846,1.728 -3.846,3.846 0,2.118 1.728,3.845 3.846,3.845 z"
       id="path85"
       class="secondary-color"
       inkscape:connector-curvature="0"
       style="clip-rule:evenodd;fill:#f05f40;fill-rule:evenodd" /></g><g
     id="Layer_3"
     transform="translate(-8.7875555,-17.363712)"><path
       d="m 153.832,170.236 c 2.119,0 3.845,-1.726 3.845,-3.845 0,-2.118 -1.727,-3.845 -3.845,-3.845 -2.116,0 -3.844,1.727 -3.844,3.845 0,2.119 1.728,3.845 3.844,3.845 z"
       id="path88"
       class="secondary-color"
       inkscape:connector-curvature="0"
       style="clip-rule:evenodd;fill:#f05f40;fill-rule:evenodd" /></g><text
     xml:space="preserve"
     style="font-style:normal;font-weight:normal;font-size:40px;line-height:125%;font-family:sans-serif;letter-spacing:0px;word-spacing:0px;fill:#333333;fill-opacity:1;stroke:none;stroke-width:1px;stroke-linecap:butt;stroke-linejoin:miter;stroke-opacity:1"
     x="224.8672"
     y="145.46706"
     id="text4188"
     sodipodi:linespacing="125%"><tspan
       sodipodi:role="line"
       id="tspan4190"
       x="224.8672"
       y="145.46706" /></text>
<text
     xml:space="preserve"
     style="font-style:normal;font-weight:normal;font-size:40px;line-height:125%;font-family:sans-serif;letter-spacing:0px;word-spacing:0px;fill:#333333;fill-opacity:1;stroke:none;stroke-width:1px;stroke-linecap:butt;stroke-linejoin:miter;stroke-opacity:1"
     x="474.84949"
     y="65.449348"
     id="text4204"
     sodipodi:linespacing="125%"><tspan
       sodipodi:role="line"
       id="tspan4206"
       x="474.84949"
       y="65.449348" /></text>
<g
     style="font-style:normal;font-weight:normal;font-size:40px;line-height:125%;font-family:sans-serif;letter-spacing:0px;word-spacing:0px;fill:#333333;fill-opacity:1;stroke:none;stroke-width:1px;stroke-linecap:butt;stroke-linejoin:miter;stroke-opacity:1"
     id="text4205"><path
       d="m 294.35128,86.15466 q 0,7.8 -5.4,13.200001 -5.3,5.299999 -13.1,5.299999 l -27.1,0 q -7.7,0 -13.1,-5.299999 -5.4,-5.400001 -5.4,-13.200001 l 0,-43.400004 q 0,-7.8 5.4,-13.300001 5.4,-5.5 13.1,-5.5 l 27.1,0 q 7.8,0 13.1,5.5 5.4,5.500001 5.4,13.300001 l 0,43.400004 z m -21.3,-8.200001 0,-27.000002 q 0,-2.4 -1.6,-4.1 -1.6,-1.8 -4,-1.8 l -8.3,0 q -2.5,0 -4.2,1.7 -1.6,1.7 -1.6,4.2 l 0,27.000002 q 0,2.5 1.7,4.2 1.7,1.700001 4.1,1.700001 l 8.3,0 q 2.4,0 4,-1.700001 1.6,-1.8 1.6,-4.2 z"
       style="font-style:normal;font-variant:normal;font-weight:normal;font-stretch:normal;font-size:100.00000763px;font-family:Grungerocker;-inkscape-font-specification:Grungerocker;fill:#333333;fill-opacity:1"
       id="path4214" /><path
       d="m 366.45598,52.054657 q 0,21.600002 -25.4,21.600002 l -18.2,0 0,31.100001 -20.80001,0 0,-80.800005 39.00001,0 q 25.1,0 25.1,22.000002 0,1 0.1,3.1 0.2,2 0.2,3 z m -23.6,-2.5 q 0,-1.5 -1.1,-2.5 -1,-1 -2.5,-1 l -12.3,0 q -1.4,0 -2.4,1.1 -0.9,1 -0.9,2.4 0,1.4 1,2.5 1,1.1 2.3,1.1 l 12.3,0 q 1.5,0 2.5,-1.1 1.1,-1.1 1.1,-2.5 z"
       style="font-style:normal;font-variant:normal;font-weight:normal;font-stretch:normal;font-size:100.00000763px;font-family:Grungerocker;-inkscape-font-specification:Grungerocker;fill:#333333;fill-opacity:1"
       id="path4216" /><path
       d="m 426.82474,104.55466 -40.50001,0 q -7.3,0 -11.9,-3.4 -5.3,-3.899999 -5.3,-10.9 l 0,-66.400005 21.3,0 0,57.100004 36.40001,0 0,23.600001 z"
       style="font-style:normal;font-variant:normal;font-weight:normal;font-stretch:normal;font-size:100.00000763px;font-family:Grungerocker;-inkscape-font-specification:Grungerocker;fill:#333333;fill-opacity:1"
       id="path4218" /><path
       d="m 509.49036,104.25466 -26.2,0 -13.8,-47.100002 -13.9,47.100002 -26.1,0 27.5,-80.500005 24.9,0 27.6,80.500005 z"
       style="font-style:normal;font-variant:normal;font-weight:normal;font-stretch:normal;font-size:100.00000763px;font-family:Grungerocker;-inkscape-font-specification:Grungerocker;fill:#333333;fill-opacity:1"
       id="path4220" /><path
       d="m 568.42631,104.55466 -40.5,0 q -7.3,0 -11.9,-3.4 -5.3,-3.899999 -5.3,-10.9 l 0,-66.400005 21.3,0 0,57.100004 36.4,0 0,23.600001 z"
       style="font-style:normal;font-variant:normal;font-weight:normal;font-stretch:normal;font-size:100.00000763px;font-family:Grungerocker;-inkscape-font-specification:Grungerocker;fill:#333333;fill-opacity:1"
       id="path4222" /><path
       d="m 638.49194,86.15466 q 0,7.8 -5.4,13.200001 -5.3,5.299999 -13.1,5.299999 l -27.1,0 q -7.7,0 -13.10001,-5.299999 -5.4,-5.400001 -5.4,-13.200001 l 0,-43.400004 q 0,-7.8 5.4,-13.300001 5.40001,-5.5 13.10001,-5.5 l 27.1,0 q 7.8,0 13.1,5.5 5.4,5.500001 5.4,13.300001 l 0,43.400004 z m -21.3,-8.200001 0,-27.000002 q 0,-2.4 -1.6,-4.1 -1.6,-1.8 -4,-1.8 l -8.3,0 q -2.5,0 -4.2,1.7 -1.6,1.7 -1.6,4.2 l 0,27.000002 q 0,2.5 1.7,4.2 1.7,1.700001 4.1,1.700001 l 8.3,0 q 2.4,0 4,-1.700001 1.6,-1.8 1.6,-4.2 z"
       style="font-style:normal;font-variant:normal;font-weight:normal;font-stretch:normal;font-size:100.00000763px;font-family:Grungerocker;-inkscape-font-specification:Grungerocker;fill:#333333;fill-opacity:1"
       id="path4224" /><path
       d="m 708.19663,46.654657 -36.20001,0 0,37.400003 15.2,0 0,-6.400001 -12.3,0 0,-23.600002 33.00001,0 0,50.500003 -43.50001,0 q -5.9,0 -10.7,-5.799999 -4.5,-5.500001 -4.5,-11.600001 l 0,-45.100004 q 0,-7.4 4.8,-12.400001 4.9,-5.1 12.2,-5.1 l 42.00001,0 0,22.100002 z"
       style="font-style:normal;font-variant:normal;font-weight:normal;font-stretch:normal;font-size:100.00000763px;font-family:Grungerocker;-inkscape-font-specification:Grungerocker;fill:#333333;fill-opacity:1"
       id="path4226" /></g><g
     style="font-style:normal;font-weight:normal;font-size:40px;line-height:125%;font-family:sans-serif;letter-spacing:0px;word-spacing:0px;fill:#000000;fill-opacity:1;stroke:none;stroke-width:1px;stroke-linecap:butt;stroke-linejoin:miter;stroke-opacity:1"
     id="text4209"><path
       d="m 257.66407,151.86951 q 0,5.22 -2.295,8.37 -2.61,3.60001 -7.605,3.60001 l -17.91,0 0,-9.58501 16.065,0 q 1.71,0 1.71,-1.575 0,-1.62 -1.845,-1.62 l -9.9,0 q -3.87,0 -5.985,-4.5 -1.665,-3.555 -1.665,-7.875 0,-4.23 2.07,-7.425 2.43,-3.645 6.48,-3.645 l 19.62,0 0,9.675 -14.985,0 q -2.205,0 -2.205,1.395 0,0.765 0.63,1.305 0.63,0.54 1.44,0.54 l 9.135,0 q 2.475,0 4.59,2.52 2.655,3.15 2.655,8.82 z"
       style="font-style:normal;font-variant:normal;font-weight:normal;font-stretch:normal;font-size:45.00000381px;font-family:Grungerocker;-inkscape-font-specification:Grungerocker;fill:#f05f40;fill-opacity:1"
       id="path4229" /><path
       d="m 287.66361,163.79452 -9.855,0 0,-12.10501 -6.705,0 0,12.10501 -9.855,0 0,-36.00001 9.855,0 0,13.275 6.705,0 0,-13.275 9.855,0 0,36.00001 z"
       style="font-style:normal;font-variant:normal;font-weight:normal;font-stretch:normal;font-size:45.00000381px;font-family:Grungerocker;-inkscape-font-specification:Grungerocker;fill:#f05f40;fill-opacity:1"
       id="path4231" /><path
       d="m 327.13424,163.65952 -11.79,0 -6.21,-21.19501 -6.255,21.19501 -11.745,0 12.375,-36.22501 11.205,0 12.42,36.22501 z"
       style="font-style:normal;font-variant:normal;font-weight:normal;font-stretch:normal;font-size:45.00000381px;font-family:Grungerocker;-inkscape-font-specification:Grungerocker;fill:#f05f40;fill-opacity:1"
       id="path4233" /><path
       d="m 358.38041,163.88452 -10.485,0 -8.1,-15.48001 -1.125,0.045 0,15.43501 -9.36,0 0,-36.36001 17.55,0 q 11.295,0 11.295,9.9 0.09,0.765 0.09,1.71 0,4.005 -1.305,6.705 -1.665,3.465 -5.13,4.05 l 6.57,13.99501 z m -10.71,-24.84001 q 0,-0.675 -0.495,-1.125 -0.495,-0.45 -1.125,-0.45 l -7.38,0 0,3.195 7.38,0 q 0.63,0 1.125,-0.495 0.495,-0.495 0.495,-1.125 z"
       style="font-style:normal;font-variant:normal;font-weight:normal;font-stretch:normal;font-size:45.00000381px;font-family:Grungerocker;-inkscape-font-specification:Grungerocker;fill:#f05f40;fill-opacity:1"
       id="path4235" /><path
       d="m 388.42706,137.73951 -14.535,0 q -1.755,0 -1.755,1.575 0,1.755 1.98,1.755 l 14.22,0 0,10.62 -15.255,0 q -1.35,0 -1.35,1.35 0,1.53 1.35,1.53 l 15.255,0 0,9.22501 -19.62,0 q -2.655,0 -4.77,-2.61001 -2.025,-2.475 -2.025,-5.22 l 0,-20.295 q 0,-3.375 2.115,-5.625 2.16,-2.25 5.49,-2.25 l 18.9,0 0,9.945 z"
       style="font-style:normal;font-variant:normal;font-weight:normal;font-stretch:normal;font-size:45.00000381px;font-family:Grungerocker;-inkscape-font-specification:Grungerocker;fill:#f05f40;fill-opacity:1"
       id="path4237" /><path
       d="m 443.43745,127.52451 -9.9,19.8 0,16.56001 -9.36,0 0,-16.56001 -9.9,-19.8 10.845,0 3.735,7.425 3.735,-7.425 10.845,0 z"
       style="font-style:normal;font-variant:normal;font-weight:normal;font-stretch:normal;font-size:45.00000381px;font-family:Grungerocker;-inkscape-font-specification:Grungerocker;fill:#f05f40;fill-opacity:1"
       id="path4239" /><path
       d="m 475.18495,155.51451 q 0,3.51 -2.43,5.94001 -2.385,2.385 -5.895,2.385 l -12.195,0 q -3.465,0 -5.895,-2.385 -2.43,-2.43001 -2.43,-5.94001 l 0,-19.53 q 0,-3.51 2.43,-5.985 2.43,-2.475 5.895,-2.475 l 12.195,0 q 3.51,0 5.895,2.475 2.43,2.475 2.43,5.985 l 0,19.53 z m -9.585,-3.69 0,-12.15 q 0,-1.08 -0.72,-1.845 -0.72,-0.81 -1.8,-0.81 l -3.735,0 q -1.125,0 -1.89,0.765 -0.72,0.765 -0.72,1.89 l 0,12.15 q 0,1.125 0.765,1.89 0.765,0.765 1.845,0.765 l 3.735,0 q 1.08,0 1.8,-0.765 0.72,-0.81 0.72,-1.89 z"
       style="font-style:normal;font-variant:normal;font-weight:normal;font-stretch:normal;font-size:45.00000381px;font-family:Grungerocker;-inkscape-font-specification:Grungerocker;fill:#f05f40;fill-opacity:1"
       id="path4241" /><path
       d="m 490.57707,127.52451 0,0 z m 18.495,28.035 q 0,3.51 -2.43,5.94001 -2.43,2.385 -5.895,2.385 l -12.24,0 q -3.51,0 -5.895,-2.385 -2.385,-2.43001 -2.385,-5.94001 l 0,-28.035 10.35,0 0,24.3 q 0,1.125 0.72,1.89 0.765,0.72 1.935,0.72 l 3.69,0 q 1.08,0 1.8,-0.765 0.765,-0.765 0.765,-1.845 l 0,-24.3 9.585,0 0,28.035 z"
       style="font-style:normal;font-variant:normal;font-weight:normal;font-stretch:normal;font-size:45.00000381px;font-family:Grungerocker;-inkscape-font-specification:Grungerocker;fill:#f05f40;fill-opacity:1"
       id="path4243" /><path
       d="m 542.86286,163.88452 -10.48501,0 -8.1,-15.48001 -1.125,0.045 0,15.43501 -9.36,0 0,-36.36001 17.55,0 q 11.29501,0 11.29501,9.9 0.09,0.765 0.09,1.71 0,4.005 -1.305,6.705 -1.665,3.465 -5.13001,4.05 l 6.57001,13.99501 z m -10.71001,-24.84001 q 0,-0.675 -0.495,-1.125 -0.495,-0.45 -1.125,-0.45 l -7.38,0 0,3.195 7.38,0 q 0.63,0 1.125,-0.495 0.495,-0.495 0.495,-1.125 z"
       style="font-style:normal;font-variant:normal;font-weight:normal;font-stretch:normal;font-size:45.00000381px;font-family:Grungerocker;-inkscape-font-specification:Grungerocker;fill:#f05f40;fill-opacity:1"
       id="path4245" /><path
       d="m 578.53449,163.88452 -9.36,0 0,-36.36001 9.36,0 0,36.36001 z"
       style="font-style:normal;font-variant:normal;font-weight:normal;font-stretch:normal;font-size:45.00000381px;font-family:Grungerocker;-inkscape-font-specification:Grungerocker;fill:#f05f40;fill-opacity:1"
       id="path4247" /><path
       d="m 609.50434,157.35951 q 0,3.15 -2.34,4.90501 -2.115,1.53 -5.4,1.53 l -18.225,0 0,-36.00001 18.225,0 q 3.06,0 5.31,1.8 2.43,1.935 2.43,4.905 l 0,22.86 z m -9.585,-6.93 0,-9.81 q 0,-3.24 -2.745,-3.24 l -4.275,0 0,15.795 4.59,0 q 2.43,0 2.43,-2.745 z"
       style="font-style:normal;font-variant:normal;font-weight:normal;font-stretch:normal;font-size:45.00000381px;font-family:Grungerocker;-inkscape-font-specification:Grungerocker;fill:#f05f40;fill-opacity:1"
       id="path4249" /><path
       d="m 640.49739,137.73951 -14.535,0 q -1.755,0 -1.755,1.575 0,1.755 1.98,1.755 l 14.22,0 0,10.62 -15.255,0 q -1.35,0 -1.35,1.35 0,1.53 1.35,1.53 l 15.255,0 0,9.22501 -19.62001,0 q -2.655,0 -4.77,-2.61001 -2.025,-2.475 -2.025,-5.22 l 0,-20.295 q 0,-3.375 2.115,-5.625 2.16,-2.25 5.49,-2.25 l 18.90001,0 0,9.945 z"
       style="font-style:normal;font-variant:normal;font-weight:normal;font-stretch:normal;font-size:45.00000381px;font-family:Grungerocker;-inkscape-font-specification:Grungerocker;fill:#f05f40;fill-opacity:1"
       id="path4251" /><path
       d="m 679.48778,163.65952 -11.79,0 -6.21,-21.19501 -6.255,21.19501 -11.74501,0 12.37501,-36.22501 11.205,0 12.42,36.22501 z"
       style="font-style:normal;font-variant:normal;font-weight:normal;font-stretch:normal;font-size:45.00000381px;font-family:Grungerocker;-inkscape-font-specification:Grungerocker;fill:#f05f40;fill-opacity:1"
       id="path4253" /><path
       d="m 711.00395,151.86951 q 0,5.22 -2.295,8.37 -2.61,3.60001 -7.605,3.60001 l -17.91,0 0,-9.58501 16.065,0 q 1.71,0 1.71,-1.575 0,-1.62 -1.845,-1.62 l -9.9,0 q -3.87,0 -5.985,-4.5 -1.665,-3.555 -1.665,-7.875 0,-4.23 2.07,-7.425 2.43,-3.645 6.48,-3.645 l 19.62,0 0,9.675 -14.985,0 q -2.205,0 -2.205,1.395 0,0.765 0.63,1.305 0.63,0.54 1.44,0.54 l 9.135,0 q 2.475,0 4.59,2.52 2.655,3.15 2.655,8.82 z"
       style="font-style:normal;font-variant:normal;font-weight:normal;font-stretch:normal;font-size:45.00000381px;font-family:Grungerocker;-inkscape-font-specification:Grungerocker;fill:#f05f40;fill-opacity:1"
       id="path4255" /></g></svg>