<?xml version="1.0" encoding="UTF-8" standalone="no"?>
<svg
   xmlns:dc="http://purl.org/dc/elements/1.1/"
   xmlns:cc="http://creativecommons.org/ns#"
   xmlns:rdf="http://www.w3.org/1999/02/22-rdf-syntax-ns#"
   xmlns:svg="http://www.w3.org/2000/svg"
   xmlns="http://www.w3.org/2000/svg"
   xmlns:sodipodi="http://sodipodi.sourceforge.net/DTD/sodipodi-0.dtd"
   xmlns:inkscape="http://www.inkscape.org/namespaces/inkscape"
   version="1.1"
   id="Layer_1"
   x="0px"
   y="0px"
   width="100px"
   viewBox="0 0 792 220.619"
   enable-background="new 0 0 792 220.619"
   xml:space="preserve"
   inkscape:version="0.91 r13725"
   sodipodi:docname="opla logo optimized - Copy.svg">
	<sodipodi:namedview
     pagecolor="#ffffff"
     bordercolor="#666666"
     borderopacity="1"
     objecttolerance="10"
     gridtolerance="10"
     guidetolerance="10"
     inkscape:pageopacity="0"
     inkscape:pageshadow="2"
     inkscape:window-width="1920"
     inkscape:window-height="1003"
     id="namedview90"
     showgrid="false"
     inkscape:zoom="3.4242424"
     inkscape:cx="98.362899"
     inkscape:cy="80.576424"
     inkscape:window-x="-9"
     inkscape:window-y="-9"
     inkscape:window-maximized="1"
     inkscape:current-layer="Layer_1" />
	<style>
		.logo-primary-color{fill:	#000000; fill-rule:	evenodd; clip-rule:	evenodd;}
		.logo-secondary-color{fill:	#ff0000; fill-rule:	evenodd; clip-rule:	evenodd;}
	</style>
	<metadata
     id="metadata97">
		<rdf:RDF>
			<cc:Work
         rdf:about="">
				<dc:format>image/svg+xml</dc:format>
				<dc:type
           rdf:resource="http://purl.org/dc/dcmitype/StillImage" />
			</cc:Work>
		</rdf:RDF>
	</metadata>
	<defs
     id="defs95" />
	<path
     inkscape:connector-curvature="0"
     class="logo-primary-color"
     id="path4"
     d="M 125.66,38.516 C 90.562,60.538 78.605,77.593 56.337,107.202 l -0.058,0.119 c -1.665,2.138 -3.248,4.229 -4.75,6.274 -10.5,15.345 -32.09,56.279 -14.332,73.232 3.479,3.319 8.194,5.28 13.983,5.518 11.765,0.479 22.741,-3.18 42.436,-16.761 13.002,-8.964 18.877,-15.21 23.134,-10.674 3.554,3.786 -1.565,10.724 -12.02,19.93 C 83.886,203.193 62.867,220.514 33.556,210.227 -17.344,188.143 22.474,110.548 44.43,87.11 60.009,68.058 84.329,47.913 105.576,34.886 c 29.477,-17.471 44.162,-9.313 20.084,3.63 z" />
	<path
     inkscape:connector-curvature="0"
     class="logo-secondary-color"
     id="path40"
     d="m 42.865,85.399 c 9.031,9.896 21.37,19.78 33.265,25.778 10.834,5.461 23.967,11.039 37.276,21.446 20.861,16.308 28.691,44.712 28.731,44.803 2.754,13.2 -7.22,7.313 -10.312,0.123 -4.868,-8.78 -14.681,-24.52 -26.859,-33.649 C 91.363,134.907 82.406,130.587 72.093,125.387 59.03,118.801 46.419,111.373 35.742,99.677 23.526,89.009 13.442,59.775 14.052,44.755 c 1.486,-13.802 8.002,-10.292 10.744,0.434 2.935,11.481 8.986,29.403 18.069,40.21 z" />
	<path
     inkscape:connector-curvature="0"
     class="logo-primary-color"
     id="path10"
     d="m 108.60608,56.028151 c 8.44,-6.999 23.549,-17.901 39.586,-25.92 30.229,-15.115 56.989,-0.445 44.581,34.493 -13.269,36.152999 -53.518,76.623999 -90.205,99.405999 -22.816998,15.279 -29.909373,5.28001 -6.457998,-11.271 27.715998,-22.235 54.721998,-47.196 70.621998,-74.524999 16.15,-27.762 15.989,-45.878 -17.419,-30.099 -11.182,5.284 -22.856,12.75 -32.198,18.35 -13.186,7.907 -23.444998,1.947 -8.509,-10.434 z"
     sodipodi:nodetypes="ccccccccc" />

	<g
     id="Layer_30">
		<rect
       x="201.972"
       y="7.393"
       width="10.481"
       height="206.836"
       id="rect7"
       class="logo-primary-color" />
	</g>

	<g
     id="Layer_28">
		<path
       d="M36.045 28.19c2.366 0 4.296-1.999 4.296-4.455 c0-2.453-1.931-4.451-4.296-4.451c-2.368 0-4.299 1.999-4.299 4.451C31.746 26.191 33.678 28.19 36.045 28.19z"
       id="path13"
       class="logo-secondary-color" />
	</g>
	<g
     id="Layer_27">
		<path
       d="M38.022 42.499c2.86 0 5.192-2.422 5.192-5.384 c0-2.962-2.332-5.383-5.192-5.383c-2.864 0-5.196 2.421-5.196 5.383C32.826 40.077 35.159 42.499 38.022 42.499z"
       id="path16"
       class="logo-secondary-color" />
	</g>
	<g
     id="Layer_26">
		<path
       d="M42.665 58.101c3.345 0 6.073-2.828 6.073-6.29 c0-3.468-2.729-6.293-6.073-6.293c-3.342 0-6.07 2.825-6.07 6.293C36.595 55.273 39.322 58.101 42.665 58.101z"
       id="path19"
       class="logo-secondary-color" />
	</g>
	<g
     id="Layer_25">
		<path
       d="M50.844 73.906c3.344 0 6.073-2.827 6.073-6.292 c0-3.466-2.729-6.291-6.073-6.291c-3.344 0-6.07 2.825-6.07 6.291C44.773 71.08 47.5 73.906 50.844 73.906z"
       id="path22"
       class="logo-secondary-color" />
	</g>
	<g
     id="Layer_24">
		<path
       d="M62.074 88.323c3.564 0 6.473-3.013 6.473-6.707 c0-3.696-2.909-6.708-6.473-6.708c-3.565 0-6.474 3.012-6.474 6.708C55.6 85.31 58.509 88.323 62.074 88.323z"
       id="path25"
       class="logo-secondary-color" />
	</g>
	<g
     id="Layer_23">
		<path
       d="M76.768 98.373c3.566 0 6.473-3.014 6.473-6.708 c0-3.691-2.907-6.707-6.473-6.707c-3.565 0-6.473 3.015-6.473 6.707C70.295 95.359 73.203 98.373 76.768 98.373z"
       id="path28"
       class="logo-secondary-color" />
	</g>
	<g
     id="Layer_22">
		<path
       d="M92.675 108.15c3.564 0 6.473-3.017 6.473-6.707 c0-3.697-2.909-6.708-6.473-6.708s-6.474 3.011-6.474 6.708C86.202 105.133 89.111 108.15 92.675 108.15z"
       id="path31"
       class="logo-secondary-color" />
	</g>
	<g
     id="Layer_21">
		<path
       d="M108.064 116.23c3.294 0 5.98-2.78 5.98-6.192 c0-3.415-2.686-6.196-5.98-6.196c-3.294 0-5.979 2.781-5.979 6.196C102.084 113.45 104.77 116.23 108.064 116.23z"
       id="path34"
       class="logo-secondary-color" />
	</g>
	<g
     id="Layer_20">
		<path
       d="M122.899 123.407c2.757 0 5.007-2.334 5.007-5.193 c0-2.857-2.25-5.19-5.007-5.19c-2.759 0-5.01 2.333-5.01 5.19C117.889 121.073 120.14 123.407 122.899 123.407z"
       id="path37"
       class="logo-secondary-color" />
	</g>
	<g
     id="Layer_18">
		<path
       d="M280.856 99.577c0 4.667-1.6 8.6-4.8 11.805 c-3.202 3.199-7.133 4.8-11.802 4.8h-11.351V97.513h3.815c1.435 0 2.632-0.521 3.588-1.569c0.957-1.048 1.435-2.287 1.435-3.723 V67.989c0-1.434-0.478-2.674-1.435-3.721c-0.956-1.046-2.153-1.569-3.588-1.569h-3.815V43.762h11.351 c4.668 0 8.6 1.646 11.802 4.938c3.2 3.289 4.8 7.263 4.8 11.933V99.577z M252.904 116.181h-12.965 c-4.609 0-8.525-1.601-11.757-4.8c-3.231-3.205-4.846-7.138-4.846-11.805V60.633c0-4.67 1.615-8.644 4.846-11.933 c3.232-3.292 7.148-4.938 11.757-4.938h12.965v18.937h-3.633c-1.497 0-2.737 0.506-3.727 1.523 c-0.985 1.018-1.479 2.275-1.479 3.768v24.232c0 1.492 0.508 2.751 1.524 3.769c1.017 1.016 2.243 1.523 3.681 1.523h3.633V116.181 z"
       id="path43"
       class="logo-primary-color" />
	</g>
	<g
     id="Layer_17">
		<path
       d="M345.468 68.979c0 12.922-7.598 19.382-22.793 19.382h-7V69.966 h5.384c0.899 0 1.66-0.33 2.289-0.987c0.627-0.659 0.942-1.407 0.942-2.245c0-0.897-0.314-1.646-0.942-2.244 c-0.628-0.598-1.39-0.897-2.289-0.897h-5.384V43.762h7c15.016 0 22.524 6.582 22.524 19.741c0 0.6 0.043 1.512 0.135 2.736 C345.423 67.467 345.468 68.381 345.468 68.979z M315.675 88.361h-9.332v27.908h-18.665V43.762h27.997v19.831h-5.653 c-0.838 0-1.541 0.314-2.108 0.944c-0.567 0.63-0.852 1.362-0.852 2.198c0 0.838 0.297 1.586 0.896 2.245 c0.598 0.657 1.286 0.987 2.064 0.987h5.653V88.361z"
       id="path46"
       class="logo-primary-color" />
	</g>
	<g
     id="Layer_16">
		<path
       d="M399.666 116h-36.341c-4.367 0-7.926-1.017-10.677-3.052 c-3.172-2.332-4.757-5.578-4.757-9.764V43.673h19.114v51.15h32.661V116z"
       id="path49"
       class="logo-primary-color" />
	</g>
	<g
     id="Layer_15">
		<polygon
       points="473.793,115.821 450.279,115.821 437.897,73.553 425.422,115.821 402.004,115.821 426.681,43.582 449.024,43.582"
       id="polygon52"
       class="logo-secondary-color" />
	</g>
	<g
     id="Layer_14">
		<path
       d="M281.484 173.666c0 6.942-1.523 12.507-4.575 16.693 c-3.469 4.784-8.525 7.18-15.167 7.18h-35.713v-19.114h32.035c2.274 0 3.41-1.047 3.41-3.144c0-2.151-1.227-3.23-3.679-3.23 h-19.742c-5.143 0-9.123-2.988-11.936-8.971c-2.215-4.729-3.319-9.962-3.319-15.706c0-5.621 1.375-10.561 4.126-14.809 c3.23-4.842 7.539-7.266 12.922-7.266h39.125v19.293h-29.882c-2.932 0-4.397 0.929-4.397 2.781c0 1.017 0.417 1.884 1.256 2.603 c0.838 0.721 1.794 1.078 2.873 1.078h18.214c3.291 0 6.341 1.677 9.154 5.026C279.722 160.266 281.484 166.13 281.484 173.666z"
       id="path55"
       class="logo-primary-color" />
	</g>
	<g
     id="Layer_13">
		<path
       d="M345.736 180.934c0 4.67-1.6 8.604-4.799 11.803 c-3.2 3.2-7.134 4.802-11.802 4.802h-11.351v-18.665h3.815c1.435 0 2.633-0.526 3.588-1.575c0.958-1.042 1.437-2.285 1.437-3.721 V149.35c0-1.439-0.478-2.678-1.437-3.726c-0.956-1.049-2.153-1.571-3.588-1.571h-3.815v-18.936h11.351 c4.668 0 8.602 1.646 11.802 4.938c3.2 3.289 4.799 7.268 4.799 11.934V180.934z M317.784 197.539h-12.966 c-4.608 0-8.525-1.602-11.757-4.802c-3.231-3.199-4.846-7.133-4.846-11.803V141.99c0-4.666 1.615-8.645 4.846-11.934 c3.232-3.293 7.148-4.938 11.757-4.938h12.966v18.936h-3.633c-1.497 0-2.739 0.512-3.727 1.529 c-0.985 1.016-1.478 2.271-1.478 3.768v24.228c0 1.497 0.508 2.752 1.524 3.769c1.017 1.018 2.246 1.527 3.681 1.527h3.633V197.539 z"
       id="path58"
       class="logo-primary-color" />
	</g>
	<g
     id="Layer_12">
		<path
       d="M403.619 197.357h-36.346c-4.367 0-7.926-1.017-10.677-3.051 c-3.172-2.332-4.756-5.58-4.756-9.767v-59.51h19.112v51.15h32.667V197.357z"
       id="path61"
       class="logo-primary-color" />
	</g>
	<g
     id="Layer_11">
		<polygon
       points="473.793,125.299 449.111,197.18 426.773,197.18 402.004,125.299 425.514,125.299 437.897,167.205 450.37,125.299"
       id="polygon64"
       class="logo-secondary-color" />
	</g>
	<g
     id="Layer_10">
		<path
       d="M553.929 146.207h-28.175v51.15h-19.021v-51.15h-28.183V125.03 c25.343 0 50.051 0 75.378 0V146.207z"
       id="path67"
       class="logo-primary-color" />
	</g>
	<g
     id="Layer_9">
		<rect
       x="560.659"
       y="125.118"
       width="18.668"
       height="72.508"
       id="rect70"
       class="logo-primary-color" />
	</g>
	<g
     id="Layer_8">
		<path
       d="M646.628 180.934c0 4.67-1.599 8.604-4.801 11.803 c-3.2 3.2-7.132 4.802-11.8 4.802H618.68v-18.665h3.814c1.433 0 2.632-0.526 3.585-1.575c0.956-1.042 1.437-2.285 1.437-3.721 V149.35c0-1.439-0.48-2.678-1.437-3.726c-0.953-1.049-2.152-1.571-3.585-1.571h-3.814v-18.936h11.348c4.668 0 8.6 1.646 11.8 4.938 c3.202 3.289 4.801 7.268 4.801 11.934V180.934z M618.68 197.539h-12.971c-4.605 0-8.524-1.602-11.758-4.802 c-3.228-3.199-4.843-7.133-4.843-11.803V141.99c0-4.666 1.615-8.645 4.843-11.934c3.233-3.293 7.152-4.938 11.758-4.938h12.971 v18.936h-3.64c-1.495 0-2.736 0.512-3.723 1.529c-0.986 1.016-1.48 2.271-1.48 3.768v24.228c0 1.497 0.509 2.752 1.528 3.769 c1.012 1.018 2.241 1.527 3.675 1.527h3.64V197.539z"
       id="path73"
       class="logo-primary-color" />
	</g>
	<g
     id="Layer_7">
		<path
       d="M714.293 197.625h-19.834V149.53c0-2.337-0.811-3.83-2.421-4.489 c-0.899-0.356-2.844-0.537-5.832-0.537c-2.693 0-4.667 0.207-5.925 0.629c-2.035 0.776-3.052 2.256-3.052 4.41v48.083h-20.73 V125.66h39.575c5.863 0 10.407 1.94 13.641 5.832c3.052 3.588 4.578 8.373 4.578 14.355V197.625z"
       id="path76"
       class="logo-primary-color" />
	</g>
	<g
     id="Layer_6">
		<path
       d="M781.322 173.666c0 6.942-1.522 12.507-4.574 16.693 c-3.469 4.784-8.527 7.18-15.164 7.18h-35.716v-19.114h32.035c2.271 0 3.412-1.047 3.412-3.144c0-2.151-1.229-3.23-3.681-3.23 h-19.741c-5.148 0-9.124-2.988-11.937-8.971c-2.216-4.729-3.322-9.962-3.322-15.706c0-5.621 1.377-10.561 4.13-14.809 c3.23-4.842 7.535-7.266 12.923-7.266h39.125v19.293h-29.884c-2.932 0-4.397 0.929-4.397 2.781c0 1.017 0.422 1.884 1.257 2.603 c0.838 0.721 1.797 1.078 2.87 1.078h18.222c3.286 0 6.338 1.677 9.149 5.026C779.562 160.266 781.322 166.13 781.322 173.666z"
       id="path79"
       class="logo-primary-color" />
	</g>
	<g
     id="Layer_5">
		<path
       d="M143.101 146.176c2.779 0 5.042-2.264 5.042-5.043 c0-2.777-2.264-5.042-5.042-5.042c-2.777 0-5.043 2.265-5.043 5.042C138.058 143.913 140.324 146.176 143.101 146.176z"
       id="path82"
       class="logo-secondary-color" />
	</g>
	<g
     id="Layer_4">
		<path
       d="M150.396 157.185c2.115 0 3.845-1.727 3.845-3.845 s-1.73-3.846-3.845-3.846c-2.119 0-3.846 1.728-3.846 3.846S148.278 157.185 150.396 157.185z"
       id="path85"
       class="logo-secondary-color" />
	</g>
	<g
     id="Layer_3">
		<path
       d="M153.832 170.236c2.119 0 3.845-1.726 3.845-3.845 c0-2.118-1.727-3.845-3.845-3.845c-2.116 0-3.844 1.727-3.844 3.845C149.988 168.51 151.716 170.236 153.832 170.236z"
       id="path88"
       class="logo-secondary-color" />
	</g>
</svg>